<?xml version="1.0" encoding="utf-8"?>
<!-- Generator: Adobe Illustrator 24.0.2, SVG Export Plug-In . SVG Version: 6.00 Build 0)  -->
<svg version="1.1" id="Layer_1" xmlns="http://www.w3.org/2000/svg" xmlns:xlink="http://www.w3.org/1999/xlink" x="0px" y="0px"
	 viewBox="0 0 120 120" style="enable-background:new 0 0 120 120;" xml:space="preserve">
<style type="text/css">
	.st0{opacity:0.5;fill:#C5C5C5;enable-background:new    ;}
	.st1{fill:#FFCC81;}
	.st2{opacity:0.1;fill:#1C1C1B;enable-background:new    ;}
	.st3{fill:#FF8C8C;}
	.st4{fill:#7E4E24;}
	.st5{fill:#72BFE3;}
	.st6{fill:#53E8D0;}
	.st7{opacity:5.000000e-02;fill:#1C1C1B;enable-background:new    ;}
	.st8{opacity:0.1;}
	.st9{fill:#1C1C1B;}
	.st10{fill:#C5C5C5;}
	.st11{fill:#F5F5F5;}
</style>
<g>
	<ellipse class="st0" cx="59.7" cy="277.3" rx="150.7" ry="32.7"/>
	<g>
		<g>
			<g>
				<g>
					<path class="st1" d="M6.5,259.2L6.5,259.2c-3.1,0-5.6-2.5-5.6-5.6V129.5c0-3.1,2.5-5.6,5.6-5.6l0,0c3.1,0,5.6,2.5,5.6,5.6
						v124.2C12.1,256.7,9.5,259.2,6.5,259.2z"/>
					<path class="st1" d="M118,259.2L118,259.2c-3.1,0-5.6-2.5-5.6-5.6V129.5c0-3.1,2.5-5.6,5.6-5.6l0,0c3.1,0,5.6,2.5,5.6,5.6
						v124.2C123.7,256.7,121.1,259.2,118,259.2z"/>
					<path class="st2" d="M6.5,259.2L6.5,259.2c-3.1,0-5.6-2.5-5.6-5.6V129.5c0-3.1,2.5-5.6,5.6-5.6l0,0c3.1,0,5.6,2.5,5.6,5.6
						v124.2C12.1,256.7,9.5,259.2,6.5,259.2z"/>
					<path class="st2" d="M118,259.2L118,259.2c-3.1,0-5.6-2.5-5.6-5.6V129.5c0-3.1,2.5-5.6,5.6-5.6l0,0c3.1,0,5.6,2.5,5.6,5.6
						v124.2C123.7,256.7,121.1,259.2,118,259.2z"/>
				</g>
				<path class="st1" d="M-4.8,287.6L-4.8,287.6c-3.6,0-6.5-2.9-6.5-6.5V137.1c0-3.6,2.9-6.5,6.5-6.5l0,0c3.6,0,6.5,2.9,6.5,6.5
					v143.9C1.7,284.6-1.2,287.6-4.8,287.6z"/>
				<path class="st1" d="M130.1,287.6L130.1,287.6c-3.6,0-6.5-2.9-6.5-6.5V137.1c0-3.6,2.9-6.5,6.5-6.5l0,0c3.6,0,6.5,2.9,6.5,6.5
					v143.9C136.6,284.6,133.7,287.6,130.1,287.6z"/>
			</g>
			<path class="st3" d="M124.5,162h-128c-11.9,0-21.6-9.7-21.6-21.6l0,0c0-11.9,9.7-21.6,21.6-21.6h127.9c11.9,0,21.6,9.7,21.6,21.6
				l0,0C146.1,152.2,136.3,162,124.5,162z"/>
			<path class="st3" d="M-21.3-59.1C5.4-79.8,109.9-84.3,139.9-69.3c29.9,15-9.5,190.9-9.5,190.9H-10.1
				C-10.1,121.6-51.6-35.6-21.3-59.1z"/>
		</g>
		<g>
			<polygon class="st4" points="38.4,263.3 40.3,272.9 10.5,300.8 59,279.6 57.9,263.3 			"/>
			<polygon class="st4" points="88.9,263.3 87,272.9 116.8,300.8 68.4,279.3 69.5,263.3 			"/>
			<g>
				<path class="st5" d="M63.1,72c11.5,0,52.1-2.5,58.7,23.8c6.6,26.4,8.2,42.1-3.2,50.1c-17.8,12.5-44.7-12.5-52.7-12.5
					C58,133.4,20,158.9,8.2,146c-8.2-9-11-27.4-4.8-46.9C11.5,73.7,41.9,72,63.1,72z"/>
				<path class="st6" d="M14.9,29C14.9,29,7,86.7,4,92.8c-3,6-6.9,20.6-5.4,26.3c3.4,12.8,46.1-7.1,66.8-5.6
					c20.7,1.5,51.7,5.3,56.6,4.1c4.9-1.1,5.7-16.6,1.9-22.6c-3.8-6-14.7-66-14.7-66L14.9,29L14.9,29z"/>
			</g>
			<path class="st4" d="M83.7-175.6c0,0,22.8,0.6,31.4,19.3s1.8,50.7,8,65.1c14.8,34.5,60.2,152.8-62,149.6
				C-61.2,55.2-6.2-39.2-5.7-60.7c0.6-21.4-12.5-32.9-11.9-55.5c0.6-22.6,13.2-35.6,18.8-45.5C6.8-171.7,34.1-210.8,83.7-175.6z"/>
			<path class="st1" d="M46.1-70.8c0,0,3.3,23.4,4.1,28.3c0,0,11,3.6,17.8,0l-1.3-28.3H46.1z"/>
			<path class="st7" d="M46.1-70.8c0,0,3.3,23.4,4.1,28.3c0,0,11,3.6,17.8,0l-1.3-28.3H46.1z"/>
			<g>
				<path class="st1" d="M79.8-92.8c0.8,6.9,6.2,11.9,13.3,9.4c7.8-2.8,16.8-19.6,7.2-27.8C92-118.2,77.8-110.4,79.8-92.8z"/>
				<path class="st1" d="M29.1-92.8c-0.8,6.9-6.2,11.9-13.3,9.4C8-86.2-1-103,8.6-111.2C16.9-118.2,31-110.4,29.1-92.8z"/>
				<path class="st7" d="M79.8-92.8c0.8,6.9,6.2,11.9,13.3,9.4c7.8-2.8,16.8-19.6,7.2-27.8C92-118.2,77.8-110.4,79.8-92.8z"/>
				<path class="st7" d="M29.1-92.8c-0.8,6.9-6.2,11.9-13.3,9.4C8-86.2-1-103,8.6-111.2C16.9-118.2,31-110.4,29.1-92.8z"/>
				<path class="st1" d="M54.8-171.4c31.9,0,41.1,24.7,41.1,54.3c0,29.7-15.2,56-38.3,56c-23.4,0-40.7-26.6-43.6-49
					C8.7-153.1,30.9-171.4,54.8-171.4z"/>
				<path class="st4" d="M69.4-155.4c0,0-21.4,26-50.9,37.1c-2.3,0.9,2.1,22.3,0.9,22.2c-1.4-0.1-8.3-15-8.3-25
					c0,0-1.9-18.7,4.9-31.1c6.8-12.5,26.7-29.7,54.7-19.1c0,0,31.4,5.9,26.5,49.9c0,0-3.2,21.8-4,21.8c-4.1,0-2.1-23.8-2.8-24.1
					C85.3-126,77.1-132,69.4-155.4z"/>
			</g>
			<g>
				<path class="st5" d="M96,97c-15.5-2.1-31.9,12.4-33,39.8c-1.9,46,0.8,131.4,0.8,131.4s15.9,8.5,26.3-0.2
					c0,0,28.3-97.5,28.6-123.5C118.9,118.6,111.1,99.1,96,97z"/>
				<path class="st5" d="M31.1,96.9c15.5-2.1,31.8,12.6,32.9,40c1.7,46-1.4,131.4-1.4,131.4s-16,8.4-26.3-0.3
					c0,0-27.9-97.6-28-123.6C8,118.4,15.9,99,31.1,96.9z"/>
			</g>
			<g>
				<path class="st6" d="M34.8-48.2c-1.7,2.1,4.5,12.8,4.5,12.8s-16.8,2.6-21.1,6.8c-4.3,4.1-35.3,64.9-36.8,68.3
					c-1.4,3.4-12.2,15-11.9,21.2c0.3,6.2,9.7,14.5,15.4,17.6c5.7,3.1,17.4,3.2,21.9,5.5c4.4,2.3,19,5.6,26.7,4.2
					c7.6-1.4,8.5-11.6,8.5-11.6h39.9c0,0,4.5,11.3,8.2,11.9c3.7,0.6,42.3-7.4,57.7-27.7c6.6-8.7-7.8-25.6-8.7-27.9
					c-0.8-2.4-30.9-58-40-63.4s-20.9-7.1-20.9-7.1s3.9-8.7,2.5-12.3C79.3-53.5,41.8-56.8,34.8-48.2z"/>
				<g class="st8">
					<path class="st9" d="M25.8-5.2c0,0-0.1,1.7-0.3,4.7c-0.3,2.9-0.6,7.2-1.4,12.3c-0.4,2.5-0.7,5.2-1.5,8.2
						c-0.7,3.2-1.6,5.7-1.8,8.6c-0.3,3.1-0.3,6.3-0.8,9.9c-0.1,0.8-0.5,2-0.8,2.9c-0.4,0.8-0.7,1.5-0.7,1.9c0,0.5-0.2-0.2,0,0.1
						c0.2,0.2,1,0.3,1.6,0.4c3,0.5,6.2,0,9.6-0.2c3.4-0.2,6.9-0.3,10.4,0.7c1.7,0.5,3.5,1.3,4.8,2.6c0.7,0.7,1.2,1.3,1.7,2.3l0.5,1
						c0.1,0.4,0.2,0.9,0.4,1.3c0.7,3.4,0.3,6.2-0.1,8.8c-0.9,5.2-2.5,9.1-3.5,11.9c-1.1,2.8-1.9,4.3-1.9,4.3s0.4-1.6,1.1-4.5
						c0.7-2.9,1.5-7.1,2-12c0.2-2.4,0.3-5.3-0.4-7.6c-0.1-0.3-0.1-0.5-0.3-0.8l-0.5-1c-0.2-0.3-0.7-0.9-1.1-1.2
						c-0.9-0.8-2.1-1.3-3.4-1.6c-2.7-0.7-5.9-0.5-9.1-0.3c-3.2,0.2-6.7,0.9-10.5,0.3c-1-0.2-1.9-0.3-3.2-1c-0.5-0.2-1.3-1.1-1.7-1.8
						c-0.2-0.4-0.3-0.9-0.3-1.3c0-0.4,0-0.7,0.1-1c0.1-0.7,0.3-1.1,0.5-1.7l0.5-1.2c0.2-0.7,0.4-1.1,0.5-2c0.5-3,0.7-6.4,1.1-9.6
						c0.4-3.5,1.9-6.6,2.6-9.1c0.9-2.6,1.5-5.3,2.1-7.8C24.2,1.4,25.8-5.2,25.8-5.2z"/>
				</g>
				<g class="st8">
					<path class="st9" d="M81.8,76.6c0,0-0.5-1.7-1.3-4.7c-0.7-3-1.9-7.4-2.8-12.7c-0.4-2.7-0.9-5.5-0.9-8.8c0-0.8,0-1.7,0.2-2.6
						c0.1-0.9,0.7-2.2,1.5-2.9c1.6-1.6,3.6-2.1,5.3-2.5c3.6-0.6,7.2-0.5,10.8-0.2c1.7,0.1,3.7,0.5,4.8,0.2c1.4-0.3,3.1-0.9,4.6-1.6
						l5-2c0.9-0.3,1.7-0.6,2.7-0.9c0.6-0.1,0.9-0.3,0.6-0.1c-0.3,0.2-0.3,0.7-0.3,0.5c0-0.7-0.9-2.5-1.6-4c-0.8-1.5-1.5-3.1-2.2-4.8
						c-1.2-3.3-2-6.3-3-9.2c-0.9-2.9-1.8-5.7-2.6-8.2c-1.6-5.1-2.7-9.4-3.6-12.4c-0.8-3-1.3-4.7-1.3-4.7s0.7,1.6,2,4.5
						c1.2,2.9,3.1,6.9,5.1,11.9c1,2.5,2.1,5.2,3.2,8c1.1,2.8,2.3,5.8,3.5,8.9c0.6,1.4,1.4,2.9,2.2,4.4c0.8,1.6,1.8,2.8,2.2,5.6
						c0.1,0.7-0.3,2.2-1.3,2.8c-1.1,0.7-1.6,0.6-1.9,0.8c-0.7,0.2-1.5,0.5-2.3,0.8l-4.9,2c-1.7,0.6-3.4,1.3-5.5,1.7
						c-2.5,0.4-4-0.1-5.8-0.2c-3.4-0.3-6.8-0.6-9.8-0.2c-1.5,0.2-2.8,0.7-3.6,1.3c-0.7,0.5-0.9,1.7-1,3.2c-0.2,2.9,0,5.8,0.2,8.4
						c0.4,5.3,0.8,9.7,1.2,12.8C81.6,74.8,81.8,76.6,81.8,76.6z"/>
				</g>
			</g>
			<path class="st1" d="M34.9,56.9c0,0-7.1,6.6-3.5,14.6l5.1,0.9c0,0,0,4.4,7.9,7.1c7.9,2.7,18.6,7.9,21.4,5.8
				c2.7-2-10.3-17.7-17.3-20.5C41.5,62.2,34.9,56.9,34.9,56.9z"/>
			<path class="st1" d="M93.6,55.8c0,0,7.5,7.2,3.4,13.8l-5.2,0c0,0-0.8,4.3-9,5.7c-8.2,1.4-19.7,4.6-22.1,2.1
				c-2.4-2.5,13.1-15.7,20.5-17.2C88.6,58.7,93.6,55.8,93.6,55.8z"/>
			<g>
				<polygon class="st10" points="-13.6,16.6 3.4,100.4 123.4,100.4 139.9,16.6 				"/>
				<circle class="st11" cx="63.1" cy="58.5" r="10.7"/>
			</g>
			<g class="st8">
				<path class="st9" d="M63.1,134.7c0,0,0.1,2,0.4,5.5c0.2,3.5,0.6,8.5,0.8,14.6c0.2,6,0.5,13.1,0.6,20.6
					c0.2,7.5,0.2,15.6,0.2,23.6c0,8-0.1,16.1-0.3,23.6c-0.1,7.5-0.5,14.6-0.7,20.6c-0.2,6-0.6,11-0.8,14.6c-0.3,3.5-0.4,5.5-0.4,5.5
					s-0.1-2-0.4-5.5c-0.2-3.5-0.6-8.5-0.8-14.6c-0.2-6-0.5-13.1-0.6-20.6c-0.2-7.5-0.2-15.6-0.2-23.6c0.1-8,0.1-16.1,0.3-23.6
					c0.1-7.5,0.5-14.6,0.7-20.6c0.2-6,0.6-11,0.8-14.6C63,136.7,63.1,134.7,63.1,134.7z"/>
			</g>
		</g>
	</g>
</g>
</svg>
