<?xml version="1.0" encoding="utf-8"?>
<!-- Generator: Adobe Illustrator 24.0.2, SVG Export Plug-In . SVG Version: 6.00 Build 0)  -->
<svg version="1.1" id="Capa_1" xmlns="http://www.w3.org/2000/svg" xmlns:xlink="http://www.w3.org/1999/xlink" x="0px" y="0px"
	 viewBox="0 0 80 80" style="enable-background:new 0 0 80 80;" xml:space="preserve">
<style type="text/css">
	.st0{fill:#9777A8;}
	.st1{fill:#556080;}
	.st2{fill:#BDC3C7;}
	.st3{fill:#F29C1F;}
	.st4{fill:#EE3457;}
	.st5{fill:#71C285;}
	.st6{fill:#59CAEF;}
	.st7{opacity:0.5;fill:#C5C5C5;enable-background:new    ;}
</style>
<g>
	<g>
		<path class="st0" d="M28.1,36.8l-4.4,4.8c-0.3,0.4-0.3,1,0,1.4c0.2,0.2,0.4,0.3,0.6,0.3s0.4-0.1,0.6-0.3l4.4-4.8
			c0.3-0.4,0.3-1,0-1.4C29,36.4,28.4,36.4,28.1,36.8z"/>
		<path class="st0" d="M36.3,36.8c-0.3-0.4-0.9-0.4-1.2,0c-0.3,0.4-0.3,1,0,1.4l5.2,5.8c0.2,0.2,0.4,0.3,0.6,0.3s0.4-0.1,0.6-0.3
			c0.3-0.4,0.3-1,0-1.4L36.3,36.8z"/>
		<path class="st0" d="M56.3,33.9c-0.3-0.4-0.9-0.4-1.2,0l-8.7,9.6c-0.3,0.4-0.3,1,0,1.4c0.2,0.2,0.4,0.3,0.6,0.3
			c0.2,0,0.4-0.1,0.6-0.3l8.7-9.6C56.6,34.9,56.6,34.3,56.3,33.9z"/>
	</g>
	<path class="st1" d="M14.8,62.3c-0.5,0-0.9-0.4-0.9-1V5.9c0-0.5,0.4-1,0.9-1s0.9,0.4,0.9,1v55.4C15.7,61.9,15.3,62.3,14.8,62.3z"/>
	<path class="st1" d="M65.6,62.3H15.2c-0.5,0-0.9-0.4-0.9-1c0-0.5,0.4-1,0.9-1h50.4c0.5,0,0.9,0.4,0.9,1
		C66.4,61.9,66,62.3,65.6,62.3z"/>
	<path class="st2" d="M20,32.7h-1.7c-0.5,0-0.9-0.4-0.9-1s0.4-1,0.9-1H20c0.5,0,0.9,0.4,0.9,1S20.5,32.7,20,32.7z"/>
	<path class="st2" d="M20,28.9h-1.7c-0.5,0-0.9-0.4-0.9-1c0-0.5,0.4-1,0.9-1H20c0.5,0,0.9,0.4,0.9,1C20.9,28.4,20.5,28.9,20,28.9z"
		/>
	<path class="st2" d="M20,25.1h-1.7c-0.5,0-0.9-0.4-0.9-1c0-0.5,0.4-1,0.9-1H20c0.5,0,0.9,0.4,0.9,1C20.9,24.6,20.5,25.1,20,25.1z"
		/>
	<path class="st2" d="M20,21.2h-1.7c-0.5,0-0.9-0.4-0.9-1s0.4-1,0.9-1H20c0.5,0,0.9,0.4,0.9,1C20.9,20.8,20.5,21.2,20,21.2z"/>
	<path class="st2" d="M20,17.4h-1.7c-0.5,0-0.9-0.4-0.9-1c0-0.5,0.4-1,0.9-1H20c0.5,0,0.9,0.4,0.9,1C20.9,17,20.5,17.4,20,17.4z"/>
	<path class="st2" d="M20,13.6h-1.7c-0.5,0-0.9-0.4-0.9-1c0-0.5,0.4-1,0.9-1H20c0.5,0,0.9,0.4,0.9,1C20.9,13.2,20.5,13.6,20,13.6z"
		/>
	<path class="st2" d="M20,9.8h-1.7c-0.5,0-0.9-0.4-0.9-1s0.4-1,0.9-1H20c0.5,0,0.9,0.4,0.9,1S20.5,9.8,20,9.8z"/>
	<ellipse class="st3" cx="21.8" cy="46.1" rx="4.3" ry="4.8"/>
	<ellipse class="st4" cx="32.2" cy="34.6" rx="4.3" ry="4.8"/>
	<ellipse class="st5" cx="59.1" cy="31.7" rx="4.3" ry="4.8"/>
	<ellipse class="st6" cx="43.5" cy="47" rx="4.3" ry="4.8"/>
</g>
<ellipse class="st7" cx="40.5" cy="74.1" rx="33.4" ry="3.6"/>
</svg>
