<?xml version="1.0" encoding="utf-8"?>
<!-- Generator: Adobe Illustrator 24.0.2, SVG Export Plug-In . SVG Version: 6.00 Build 0)  -->
<svg version="1.1" id="Capa_1" xmlns="http://www.w3.org/2000/svg" xmlns:xlink="http://www.w3.org/1999/xlink" x="0px" y="0px"
	 viewBox="0 0 80 80" style="enable-background:new 0 0 80 80;" xml:space="preserve">
<style type="text/css">
	.st0{fill:#231F20;stroke:#FFFFFF;stroke-miterlimit:10;}
	.st1{fill:#1BC2E6;stroke:#FFFFFF;stroke-miterlimit:10;}
	.st2{opacity:0.5;fill:#C5C5C5;enable-background:new    ;}
</style>
<g>
	<path class="st0" d="M64.5,8.5H14.8c-1,0-1.9,0.9-1.9,2.1V63c0,1.2,0.8,2.1,1.9,2.1h49.8c1,0,1.9-0.9,1.9-2.1V10.6
		C66.4,9.4,65.6,8.5,64.5,8.5z M62.7,12.7v34.2h-46V12.7H62.7z M16.7,60.9v-9.7h46v9.7H16.7z"/>
	<path class="st1" d="M24.1,40.7h1.2v1.4c0,1.2,0.8,2.1,1.9,2.1c1,0,1.9-0.9,1.9-2.1v-1.4h1.2c1,0,1.9-0.9,1.9-2.1
		c0-1.2-0.8-2.1-1.9-2.1h-1.2V17.6c0-1.2-0.8-2.1-1.9-2.1c-1,0-1.9,0.9-1.9,2.1v18.8h-1.2c-1,0-1.9,0.9-1.9,2.1
		C22.2,39.7,23.1,40.7,24.1,40.7z"/>
	<path class="st1" d="M49,33.7h1.2v8.4c0,1.2,0.8,2.1,1.9,2.1c1,0,1.9-0.9,1.9-2.1v-8.4h1.2c1,0,1.9-0.9,1.9-2.1
		c0-1.2-0.8-2.1-1.9-2.1H54V17.6c0-1.2-0.8-2.1-1.9-2.1c-1,0-1.9,0.9-1.9,2.1v11.9H49c-1,0-1.9,0.9-1.9,2.1
		C47.1,32.8,47.9,33.7,49,33.7z"/>
	<path class="st1" d="M36.5,26.7h1.2v15.4c0,1.2,0.8,2.1,1.9,2.1s1.9-0.9,1.9-2.1V26.7h1.2c1,0,1.9-0.9,1.9-2.1
		c0-1.2-0.8-2.1-1.9-2.1h-1.2v-4.9c0-1.2-0.8-2.1-1.9-2.1s-1.9,0.9-1.9,2.1v4.9h-1.2c-1,0-1.9,0.9-1.9,2.1
		C34.7,25.8,35.5,26.7,36.5,26.7z"/>
	<path class="st0" d="M24.1,53.9H21c-1,0-1.9,0.9-1.9,2.1c0,1.2,0.8,2.1,1.9,2.1h3.1c1,0,1.9-0.9,1.9-2.1
		C26,54.9,25.1,53.9,24.1,53.9z"/>
	<path class="st0" d="M33.4,53.9h-3.1c-1,0-1.9,0.9-1.9,2.1c0,1.2,0.8,2.1,1.9,2.1h3.1c1,0,1.9-0.9,1.9-2.1
		C35.3,54.9,34.5,53.9,33.4,53.9z"/>
	<path class="st0" d="M58.3,53.9h-3.1c-1,0-1.9,0.9-1.9,2.1c0,1.2,0.8,2.1,1.9,2.1h3.1c1,0,1.9-0.9,1.9-2.1
		C60.2,54.9,59.4,53.9,58.3,53.9z"/>
</g>
<ellipse class="st2" cx="39.7" cy="75.3" rx="23.7" ry="2.7"/>
</svg>
