<?xml version="1.0" encoding="utf-8"?>
<!-- Generator: Adobe Illustrator 24.0.2, SVG Export Plug-In . SVG Version: 6.00 Build 0)  -->
<svg version="1.1" id="Layer_1" xmlns="http://www.w3.org/2000/svg" xmlns:xlink="http://www.w3.org/1999/xlink" x="0px" y="0px"
	 viewBox="0 0 78.9 80" style="enable-background:new 0 0 78.9 80;" xml:space="preserve">
<style type="text/css">
	.st0{fill:#231F20;}
	.st1{fill:#45C3F1;}
	.st2{fill:#BDD231;}
	.st3{fill:#A9CF38;}
	.st4{fill:#D4E05A;}
	.st5{fill:#FFB4BE;}
	.st6{fill:#B4D334;}
	.st7{fill:#EE1E39;}
	.st8{fill:#EE2448;}
	.st9{fill:#ABD037;}
	.st10{fill:#C3D833;}
	.st11{fill:#FFFFFF;}
	.st12{fill:#FFC8D2;}
	.st13{fill:#785AE6;}
	.st14{fill:#E678A0;}
	.st15{fill:#00AFDE;}
	.st16{fill:#FA8CB4;}
	.st17{fill:#0EAFE6;}
	.st18{fill:#222211;}
	.st19{fill:#5AC5F1;}
	.st20{fill:#210E09;}
	.st21{opacity:0.5;fill:#C5C5C5;enable-background:new    ;}
</style>
<title>man2</title>
<ellipse class="st0" cx="29.6" cy="27.4" rx="4.5" ry="4.9"/>
<path class="st1" d="M29.6,32.7c-2.7,0-5-2.4-5-5.3s2.2-5.3,5-5.3s5,2.4,5,5.3S32.3,32.7,29.6,32.7z M29.6,23c-2.2,0-4,2-4,4.5
	s1.8,4.5,4,4.5s4-2,4-4.5S31.8,23,29.6,23z"/>
<path class="st0" d="M30.4,31c-1.8,0-3.3-1.6-3.3-3.5s1.5-3.5,3.3-3.5c1.8,0,3.3,1.6,3.3,3.5S32.3,31,30.4,31z M30.4,24.7
	c-1.3,0-2.4,1.2-2.4,2.7c0,1.5,1.1,2.7,2.4,2.7s2.4-1.2,2.4-2.7S31.7,24.7,30.4,24.7z"/>
<path class="st2" d="M36.5,38.2l-11.4,5.2c-3.8,1.7-3.8,7-3.8,10.5v7h40.8v-7c0-4.4,0-7.8-3.8-10.5C54.5,40.8,45,37.7,45,37.7v-3.6
	L36.5,38.2z"/>
<path class="st3" d="M58.3,43.4C54.5,40.8,45,37.7,45,37.7v1.7c0,0,9.5,3.1,13.3,5.7c3.8,2.6,3.8,6.1,3.8,10.5v-1.7
	C62.1,49.5,62.1,46,58.3,43.4z"/>
<path class="st4" d="M25.1,45.2l11.4-5.2l8.5-4.1V34l-8.5,4.1l-11.4,5.2c-3.8,1.7-3.8,7-3.8,10.5v1.7C21.3,52.1,21.3,46.9,25.1,45.2
	z"/>
<path class="st5" d="M32.7,39.9l5,7.4L49,39.1l-4-1.4l-8.5,0.5L32.7,39.9z"/>
<path class="st6" d="M30.4,41l7,9.4L51.3,40L49,39.1l-11.3,8.2l-5-7.4L30.4,41z"/>
<path class="st7" d="M33.6,41.3L32.7,40l-2.3,1l0.9,1.3L33.6,41.3L33.6,41.3z"/>
<path class="st8" d="M47.4,40.3c0.7,0.3,1.5,0.6,2.4,0.9l1.5-1.1L49,39.1L47.4,40.3z"/>
<path class="st9" d="M37.4,50.8L37.4,50.8c-0.2,0-0.3-0.1-0.4-0.2l-7-9.4c-0.1-0.1-0.1-0.2-0.1-0.4c0-0.1,0.1-0.2,0.2-0.3l2.3-1
	c0.2-0.1,0.5,0,0.6,0.2l4.7,7l10.9-7.9c0.1-0.1,0.3-0.1,0.5-0.1l2.3,0.9c0.2,0.1,0.3,0.2,0.3,0.3c0,0.2,0,0.3-0.2,0.4L37.7,50.7
	C37.6,50.8,37.5,50.8,37.4,50.8L37.4,50.8z"/>
<path class="st10" d="M21.3,60.8h40.8v-1.7H21.3V60.8z"/>
<path class="st11" d="M52.6,60.8c-0.3,0-0.5-0.2-0.5-0.4V50.4c0-0.2,0.2-0.4,0.5-0.4s0.5,0.2,0.5,0.4v10.1
	C53.1,60.6,52.9,60.8,52.6,60.8z"/>
<path class="st11" d="M25.1,60.8c-0.3,0-0.5-0.2-0.5-0.4V50.4c0-0.2,0.2-0.4,0.5-0.4c0.3,0,0.5,0.2,0.5,0.4v10.1
	C25.6,60.6,25.4,60.8,25.1,60.8z"/>
<path class="st5" d="M36.4,36.5v6.1h0.1l8.5-1.7v-7.6L36.4,36.5z"/>
<path class="st12" d="M28.9,18.2v13.1c0,2.9,2.6,5.2,5.7,5.2h4.7c3.7,0,6.6-2.7,6.6-6.1v-0.9h1.9c1.6,0,2.8-1.2,2.8-2.6v-1.7
	c0-1.4-1.3-2.6-2.8-2.6H46l-2.8-4.4L28.9,18.2z"/>
<path class="st0" d="M46.1,23.5L45.6,30h3.1c1.2-2.8,5.1-7.1,3.8-12.2c-3-11.1-12.7-5.7-16.5-5.7s-5.7-3.5-6.6-2.6
	c-1.5,1.4,0,3.5,0,3.5c-0.9,0-2.8-1.7-3.8-2.6c-0.9-0.9-2.8,0.9-2.8,6.1c0,3.5,3.3,5.2,6.1,5.3c1.3,0.1,2.7-0.1,3.4-0.1h9.5
	c0,0,0,5.2,1.9,5.2C44.8,27,45.7,25.3,46.1,23.5L46.1,23.5z"/>
<path class="st0" d="M34.3,11.9c-2.7-0.8-4.2-3.1-5-2.4c-0.7,0.7-0.8,1.6-0.5,2.4c0.1-0.3,0.3-0.5,0.5-0.7c0.8-0.7,2.3,0.4,5,1.2
	L34.3,11.9z"/>
<path class="st0" d="M41.7,20.9c0-0.5-0.4-0.9-0.9-0.9h-8.5c-0.6,0-2.1,0.2-3.4,0.1c-2.7-0.1-5.7-1.7-6.1-4.7c0,0.4,0,0.7,0,1.1
	c0,3.5,3.3,5.2,6.1,5.3c1.3,0.1,2.7-0.1,3.4-0.1h9.5V20.9z"/>
<path class="st0" d="M25.6,12.2c0.9,0.9,2.8,2.6,3.8,2.6c-0.4-0.6-0.6-1.3-0.7-1.9c-1-0.5-2.4-1.7-3.1-2.4c-0.9-0.9-2.8,0.9-2.8,6.1
	c0,0.2,0,0.3,0,0.5C23,12.8,24.7,11.4,25.6,12.2z"/>
<path class="st0" d="M46.1,22.6c-0.4,1.8-1.3,4.4-2.5,4.4c-1.9,0-1.9-6.1-1.9-6.1L46.1,22.6z"/>
<path class="st0" d="M51.6,25.1c0,0-0.1,0-0.1,0c-0.2-0.1-0.4-0.3-0.3-0.5c0.1-0.3,0.2-0.6,0.4-0.9c0.6-1.4,1.4-3,0.2-6.9
	c-1.6-5.2-5.2-5.6-7.7-5.4c-0.3,0-0.5-0.2-0.5-0.4c0-0.2,0.2-0.5,0.4-0.5c4.5-0.3,7.4,1.7,8.7,6c1.3,4.2,0.5,6-0.2,7.5
	c-0.1,0.3-0.3,0.6-0.4,0.9C52,25,51.8,25.1,51.6,25.1L51.6,25.1z"/>
<path class="st13" d="M30.8,28.2c-0.3,0-0.5-0.2-0.5-0.4v-2.6c0-0.2,0.2-0.4,0.5-0.4c0.3,0,0.5,0.2,0.5,0.4v2.6
	C31.3,28,31,28.2,30.8,28.2z"/>
<path class="st13" d="M40.3,24.7c-0.1,0-0.2,0-0.3-0.1c-2.5-2.3-4-0.9-4.1-0.9c-0.2,0.2-0.5,0.2-0.7,0c-0.2-0.2-0.2-0.4,0-0.6l0,0
	c0,0,2.3-2,5.4,0.9c0.2,0.2,0.2,0.4,0,0.6C40.5,24.7,40.4,24.7,40.3,24.7L40.3,24.7z"/>
<path class="st13" d="M31.7,23.8c-0.1,0-0.2,0-0.3-0.1c-0.6-0.5-1.6-0.6-2.2-0.1c-0.2,0.1-0.5,0.1-0.7-0.1c-0.2-0.2-0.1-0.5,0.1-0.6
	c0,0,0,0,0,0c1-0.8,2.5-0.7,3.5,0.1c0.2,0.2,0.2,0.4,0,0.6C32,23.8,31.9,23.8,31.7,23.8L31.7,23.8z"/>
<path class="st13" d="M47.9,29.9H46c-0.3,0-0.5-0.2-0.5-0.4c0-0.2,0.2-0.4,0.5-0.4h1.9c1.3,0,2.4-1,2.4-2.2v-1.7
	c0-1.2-1.1-2.2-2.4-2.2h-0.9c-0.3,0-0.5-0.2-0.5-0.4c0-0.2,0.2-0.4,0.5-0.4h0.9c1.8,0,3.3,1.4,3.3,3v1.7
	C51.2,28.6,49.7,29.9,47.9,29.9z"/>
<path class="st13" d="M37.4,33.4h-4.7c-0.3,0-0.5-0.2-0.5-0.4s0.2-0.4,0.5-0.4h4.7c0.2,0,0.5-0.1,0.5-0.4c0,0,0,0,0-0.1
	c0-0.2,0.2-0.4,0.5-0.4l0,0c0.3,0,0.5,0.2,0.5,0.4C38.9,32.8,38.3,33.4,37.4,33.4C37.5,33.4,37.5,33.4,37.4,33.4z"/>
<path class="st13" d="M32.7,30.8c-1.1,0-2.4-0.3-2.4-1.3s1.6-4,1.9-4.5c0.1-0.2,0.4-0.3,0.6-0.2c0.2,0.1,0.3,0.4,0.2,0.6
	c-0.8,1.4-1.8,3.6-1.8,4.2c0,0.3,0.9,0.4,1.4,0.4c0.3,0,0.5,0.2,0.5,0.4C33.2,30.6,32.9,30.8,32.7,30.8L32.7,30.8z"/>
<path class="st13" d="M37.4,28.2c-0.3,0-0.5-0.2-0.5-0.4v-2.6c0-0.2,0.2-0.4,0.5-0.4s0.5,0.2,0.5,0.4v2.6
	C37.9,28,37.7,28.2,37.4,28.2z"/>
<path class="st14" d="M26.7,19.9L26.7,19.9L26.7,19.9L26.7,19.9L26.7,19.9z"/>
<path class="st15" d="M47.9,13c-3.8-3.5-10.4-3.5-14.2-2.6c-0.6,0.1-1.1,0.3-1.6,0.6l1.4,1.2l0.3,0.2c2.6-1.1,5.3-1,8.4,0.6
	c0.4,0.2,0.8,0.5,1,0.9c1.8,1.7,2.8,3.5,2.8,9.5h4.7C50.7,23.4,51.6,16.4,47.9,13z"/>
<path class="st16" d="M26.7,19.9L26.7,19.9L26.7,19.9L26.7,19.9L26.7,19.9z"/>
<path class="st17" d="M47.9,13c-3.8-3.5-10.4-3.5-14.2-2.6c-0.6,0.1-1.1,0.3-1.6,0.6l1.3,1.3c0.1,0,0.2-0.1,0.3-0.1
	c3.8-0.9,10.4-0.9,14.2,2.6c2.2,2.1,2.8,5.3,2.9,7.7C50.9,20.3,50.8,15.6,47.9,13z"/>
<path class="st18" d="M28.4,21.9L28.4,21.9c-4.1-0.7-6.2-2.5-6.2-5.4c0-4.3,1.2-6.2,2.3-6.6c0.5-0.2,1-0.1,1.4,0.2
	c0.8,0.7,1.6,1.4,2.5,2.1c-0.4-1-0.2-2.2,0.6-2.9c0.7-0.6,1.5,0,2.4,0.7c0.9,0.8,1.9,1.4,3,1.7c0.3,0.1,0.4,0.3,0.3,0.5
	c-0.1,0.2-0.3,0.4-0.6,0.3c0,0,0,0,0,0c-1.3-0.4-2.4-1.1-3.4-1.9c-0.3-0.3-0.7-0.5-1.1-0.7c-1.2,1.1,0,2.9,0.1,2.9
	c0.1,0.1,0.1,0.3,0,0.4c-0.1,0.1-0.2,0.2-0.4,0.2c-1.1,0-2.7-1.4-4.1-2.7c-0.1-0.1-0.2-0.1-0.3-0.1c-0.7,0.3-1.7,2-1.7,5.8
	c0,2.4,1.8,3.9,5.3,4.5c0.3,0,0.5,0.2,0.4,0.5C28.9,21.8,28.7,21.9,28.4,21.9L28.4,21.9z"/>
<ellipse class="st0" cx="47.6" cy="27.4" rx="4.5" ry="4.9"/>
<path class="st19" d="M47.6,32.7c-2.7,0-5-2.4-5-5.3s2.2-5.3,5-5.3c2.7,0,5,2.4,5,5.3S50.4,32.7,47.6,32.7z M47.6,23
	c-2.2,0-4,2-4,4.5s1.8,4.5,4,4.5c2.2,0,4-2,4-4.5S49.8,23,47.6,23z"/>
<ellipse class="st20" cx="48.4" cy="27.4" rx="2.9" ry="3.1"/>
<path class="st0" d="M48.4,31c-1.8,0-3.3-1.6-3.3-3.5s1.5-3.5,3.3-3.5c1.8,0,3.3,1.6,3.3,3.5S50.3,31,48.4,31z M48.4,24.7
	c-1.3,0-2.4,1.2-2.4,2.7c0,1.5,1.1,2.7,2.4,2.7c1.3,0,2.4-1.2,2.4-2.7S49.8,24.7,48.4,24.7z"/>
<ellipse class="st21" cx="40.9" cy="71.8" rx="20.6" ry="3.6"/>
</svg>
