<?xml version="1.0" encoding="utf-8"?>
<!-- Generator: Adobe Illustrator 24.0.2, SVG Export Plug-In . SVG Version: 6.00 Build 0)  -->
<svg version="1.1" id="Capa_1" xmlns="http://www.w3.org/2000/svg" xmlns:xlink="http://www.w3.org/1999/xlink" x="0px" y="0px"
	 viewBox="0 0 90 90" style="enable-background:new 0 0 90 90;" xml:space="preserve">
<style type="text/css">
	.st0{fill:#C92027;}
	.st1{fill:#231F20;}
	.st2{opacity:0.5;fill:#C5C5C5;enable-background:new    ;}
</style>
<g>
	<path class="st0" d="M3.8,20.3v42.4c0,2.8,2.4,5.1,5.3,5.1h27.6c2.9,0,5.3-2.3,5.3-5.1V20.3c0-0.5-0.2-1.4-0.4-2l-1-2.2
		c-0.8-1.7-3.8-3.1-6.7-3.1H12.3c-2.9,0-6,1.4-6.9,3.1C5,17,4.6,17.8,4.2,18.3C3.9,18.9,3.8,19.7,3.8,20.3z M10.8,63.4
		c-0.8,0-1.5-0.7-1.5-1.4c0-0.8,0.7-1.4,1.5-1.4c0.8,0,1.5,0.7,1.5,1.4C12.2,62.7,11.5,63.4,10.8,63.4z M9.5,41.7
		c0-0.8,0.7-1.4,1.5-1.4c0.8,0,1.5,0.7,1.5,1.4s-0.7,1.4-1.5,1.4C10.2,43.1,9.5,42.5,9.5,41.7z M34.8,63.4c-0.8,0-1.5-0.7-1.5-1.4
		c0-0.8,0.7-1.4,1.5-1.4s1.5,0.7,1.5,1.4C36.3,62.7,35.6,63.4,34.8,63.4z M35,43.1c-0.8,0-1.5-0.7-1.5-1.4s0.7-1.4,1.5-1.4
		c0.8,0,1.5,0.7,1.5,1.4C36.5,42.5,35.8,43.1,35,43.1z M34.5,27.2c1.3,0,2.6,1.1,2.6,2.5c0,1.3-1.1,2.5-2.6,2.5
		c-1.3,0-2.6-1.1-2.6-2.5C32,28.3,33.1,27.2,34.5,27.2z M22.8,40.7c6.5,0,11.8,5.1,11.8,11.3c0,6.3-5.3,11.4-11.8,11.4
		S11,58.3,11,52C11,45.8,16.3,40.7,22.8,40.7z M11.7,27.2c1.3,0,2.6,1.1,2.6,2.5c0,1.3-1.1,2.5-2.6,2.5c-1.3,0-2.6-1.1-2.6-2.5
		C9.1,28.3,10.2,27.2,11.7,27.2z"/>
	<path class="st1" d="M22.8,48.5c2,0,3.6,1.5,3.6,3.5s-1.6,3.5-3.6,3.5S19.2,54,19.2,52C19.2,50.2,20.8,48.5,22.8,48.5z"/>
</g>
<ellipse class="st2" cx="22.6" cy="79.2" rx="18.6" ry="2.5"/>
<g>
	<path class="st0" d="M49,20.3v42.4c0,2.8,2.3,5.1,5.3,5.1h27.5c2.9,0,5.3-2.3,5.3-5.1V20.3c0-0.5-0.2-1.4-0.4-2l-1-2.2
		c-0.8-1.7-3.8-3.1-6.7-3.1H57.5c-2.9,0-5.9,1.4-6.8,3.1c-0.4,0.9-0.9,1.6-1.2,2.2S49,19.7,49,20.3z M55.9,63.4
		c-0.8,0-1.5-0.7-1.5-1.4c0-0.8,0.7-1.4,1.5-1.4c0.8,0,1.5,0.7,1.5,1.4C57.4,62.7,56.7,63.4,55.9,63.4z M54.7,41.7
		c0-0.8,0.7-1.4,1.5-1.4c0.8,0,1.5,0.7,1.5,1.4s-0.7,1.4-1.5,1.4C55.4,43.1,54.7,42.5,54.7,41.7z M79.8,63.4c-0.8,0-1.5-0.7-1.5-1.4
		c0-0.8,0.7-1.4,1.5-1.4c0.8,0,1.5,0.7,1.5,1.4C81.3,62.7,80.6,63.4,79.8,63.4z M80.1,43.1c-0.8,0-1.5-0.7-1.5-1.4s0.7-1.4,1.5-1.4
		s1.5,0.7,1.5,1.4C81.5,42.5,80.9,43.1,80.1,43.1z M79.5,27.2c1.3,0,2.6,1.1,2.6,2.5c0,1.3-1.1,2.5-2.6,2.5c-1.3,0-2.6-1.1-2.6-2.5
		C77.1,28.3,78.2,27.2,79.5,27.2z M67.9,40.7c6.5,0,11.7,5.1,11.7,11.3c0,6.3-5.3,11.4-11.7,11.4c-6.5,0-11.7-5.1-11.7-11.4
		C56.2,45.8,61.4,40.7,67.9,40.7z M56.8,27.2c1.3,0,2.6,1.1,2.6,2.5c0,1.3-1.1,2.5-2.6,2.5c-1.3,0-2.6-1.1-2.6-2.5
		C54.3,28.3,55.4,27.2,56.8,27.2z"/>
	<path class="st1" d="M67.9,48.5c2,0,3.6,1.5,3.6,3.5s-1.6,3.5-3.6,3.5c-2,0-3.6-1.5-3.6-3.5C64.3,50.2,65.9,48.5,67.9,48.5z"/>
</g>
<ellipse class="st2" cx="68.7" cy="79.2" rx="17.3" ry="2.5"/>
</svg>
